<mxfile host="app.diagrams.net" modified="2024-06-05T21:44:11.146Z" agent="Mozilla/5.0 (Windows NT 10.0; Win64; x64) AppleWebKit/537.36 (KHTML, like Gecko) Chrome/125.0.0.0 Safari/537.36" version="24.4.14" etag="CZpB3--hJz6OVOA2Sn37" type="github">
  <diagram name="PÃ¡gina-1" id="_9xaK9cDrDM9VRU6Vr-9">
    <mxGraphModel>
      <root>
        <mxCell id="0" />
        <mxCell id="1" parent="0" />
      </root>
    </mxGraphModel>
  </diagram>
</mxfile>
